<?xml version="1.0" encoding="utf-8" standalone="no"?>
<!DOCTYPE svg PUBLIC "-//W3C//DTD SVG 1.1//EN"
  "http://www.w3.org/Graphics/SVG/1.1/DTD/svg11.dtd">
<svg xmlns:xlink="http://www.w3.org/1999/xlink" width="238.386094pt" height="194.53375pt" viewBox="0 0 238.386094 194.53375" xmlns="http://www.w3.org/2000/svg" version="1.1">
 <metadata>
  <rdf:RDF xmlns:dc="http://purl.org/dc/elements/1.1/" xmlns:cc="http://creativecommons.org/ns#" xmlns:rdf="http://www.w3.org/1999/02/22-rdf-syntax-ns#">
   <cc:Work>
    <dc:type rdf:resource="http://purl.org/dc/dcmitype/StillImage"/>
    <dc:date>2026-06-25T15:51:54.154842</dc:date>
    <dc:format>image/svg+xml</dc:format>
    <dc:creator>
     <cc:Agent>
      <dc:title>Matplotlib v3.10.9, https://matplotlib.org/</dc:title>
     </cc:Agent>
    </dc:creator>
   </cc:Work>
  </rdf:RDF>
 </metadata>
 <defs>
  <style type="text/css">*{stroke-linejoin: round; stroke-linecap: butt}</style>
 </defs>
 <g id="figure_1">
  <g id="patch_1">
   <path d="M 0 194.53375 
L 238.386094 194.53375 
L 238.386094 0 
L 0 0 
L 0 194.53375 
z
" style="fill: none"/>
  </g>
  <g id="axes_1">
   <g id="patch_2">
    <path d="M 41.466094 159.3 
L 231.186094 159.3 
L 231.186094 20.7 
L 41.466094 20.7 
L 41.466094 159.3 
z
" style="fill: none"/>
   </g>
   <g id="matplotlib.axis_1">
    <g id="xtick_1">
     <g id="line2d_1">
      <defs>
       <path id="mabab04c6c5" d="M 0 0 
L 0 4 
" style="stroke: #f2f2f2; stroke-width: 0.5"/>
      </defs>
      <g>
       <use xlink:href="#mabab04c6c5" x="45.36445" y="159.3" style="fill: #f2f2f2; stroke: #f2f2f2; stroke-width: 0.5"/>
      </g>
     </g>
     <g id="text_1">
      <text style="font-weight: 300; font-size: 8px; font-family: 'Fira Sans', sans-serif; text-anchor: middle; fill: #f2f2f2" x="45.36445" y="172.24375" transform="rotate(-0 45.36445 172.24375)">0</text>
     </g>
    </g>
    <g id="xtick_2">
     <g id="line2d_2">
      <g>
       <use xlink:href="#mabab04c6c5" x="77.850751" y="159.3" style="fill: #f2f2f2; stroke: #f2f2f2; stroke-width: 0.5"/>
      </g>
     </g>
     <g id="text_2">
      <text style="font-weight: 300; font-size: 8px; font-family: 'Fira Sans', sans-serif; text-anchor: middle; fill: #f2f2f2" x="77.850751" y="172.24375" transform="rotate(-0 77.850751 172.24375)">5</text>
     </g>
    </g>
    <g id="xtick_3">
     <g id="line2d_3">
      <g>
       <use xlink:href="#mabab04c6c5" x="110.337053" y="159.3" style="fill: #f2f2f2; stroke: #f2f2f2; stroke-width: 0.5"/>
      </g>
     </g>
     <g id="text_3">
      <text style="font-weight: 300; font-size: 8px; font-family: 'Fira Sans', sans-serif; text-anchor: middle; fill: #f2f2f2" x="110.337053" y="172.24375" transform="rotate(-0 110.337053 172.24375)">10</text>
     </g>
    </g>
    <g id="xtick_4">
     <g id="line2d_4">
      <g>
       <use xlink:href="#mabab04c6c5" x="142.823354" y="159.3" style="fill: #f2f2f2; stroke: #f2f2f2; stroke-width: 0.5"/>
      </g>
     </g>
     <g id="text_4">
      <text style="font-weight: 300; font-size: 8px; font-family: 'Fira Sans', sans-serif; text-anchor: middle; fill: #f2f2f2" x="142.823354" y="172.24375" transform="rotate(-0 142.823354 172.24375)">15</text>
     </g>
    </g>
    <g id="xtick_5">
     <g id="line2d_5">
      <g>
       <use xlink:href="#mabab04c6c5" x="175.309655" y="159.3" style="fill: #f2f2f2; stroke: #f2f2f2; stroke-width: 0.5"/>
      </g>
     </g>
     <g id="text_5">
      <text style="font-weight: 300; font-size: 8px; font-family: 'Fira Sans', sans-serif; text-anchor: middle; fill: #f2f2f2" x="175.309655" y="172.24375" transform="rotate(-0 175.309655 172.24375)">20</text>
     </g>
    </g>
    <g id="xtick_6">
     <g id="line2d_6">
      <g>
       <use xlink:href="#mabab04c6c5" x="207.795957" y="159.3" style="fill: #f2f2f2; stroke: #f2f2f2; stroke-width: 0.5"/>
      </g>
     </g>
     <g id="text_6">
      <text style="font-weight: 300; font-size: 8px; font-family: 'Fira Sans', sans-serif; text-anchor: middle; fill: #f2f2f2" x="207.795957" y="172.24375" transform="rotate(-0 207.795957 172.24375)">25</text>
     </g>
    </g>
    <g id="xtick_7">
     <g id="line2d_7">
      <defs>
       <path id="med5f635b2b" d="M 0 0 
L 0 2 
" style="stroke: #f2f2f2; stroke-width: 0.5"/>
      </defs>
      <g>
       <use xlink:href="#med5f635b2b" x="51.86171" y="159.3" style="fill: #f2f2f2; stroke: #f2f2f2; stroke-width: 0.5"/>
      </g>
     </g>
    </g>
    <g id="xtick_8">
     <g id="line2d_8">
      <g>
       <use xlink:href="#med5f635b2b" x="58.35897" y="159.3" style="fill: #f2f2f2; stroke: #f2f2f2; stroke-width: 0.5"/>
      </g>
     </g>
    </g>
    <g id="xtick_9">
     <g id="line2d_9">
      <g>
       <use xlink:href="#med5f635b2b" x="64.856231" y="159.3" style="fill: #f2f2f2; stroke: #f2f2f2; stroke-width: 0.5"/>
      </g>
     </g>
    </g>
    <g id="xtick_10">
     <g id="line2d_10">
      <g>
       <use xlink:href="#med5f635b2b" x="71.353491" y="159.3" style="fill: #f2f2f2; stroke: #f2f2f2; stroke-width: 0.5"/>
      </g>
     </g>
    </g>
    <g id="xtick_11">
     <g id="line2d_11">
      <g>
       <use xlink:href="#med5f635b2b" x="84.348012" y="159.3" style="fill: #f2f2f2; stroke: #f2f2f2; stroke-width: 0.5"/>
      </g>
     </g>
    </g>
    <g id="xtick_12">
     <g id="line2d_12">
      <g>
       <use xlink:href="#med5f635b2b" x="90.845272" y="159.3" style="fill: #f2f2f2; stroke: #f2f2f2; stroke-width: 0.5"/>
      </g>
     </g>
    </g>
    <g id="xtick_13">
     <g id="line2d_13">
      <g>
       <use xlink:href="#med5f635b2b" x="97.342532" y="159.3" style="fill: #f2f2f2; stroke: #f2f2f2; stroke-width: 0.5"/>
      </g>
     </g>
    </g>
    <g id="xtick_14">
     <g id="line2d_14">
      <g>
       <use xlink:href="#med5f635b2b" x="103.839792" y="159.3" style="fill: #f2f2f2; stroke: #f2f2f2; stroke-width: 0.5"/>
      </g>
     </g>
    </g>
    <g id="xtick_15">
     <g id="line2d_15">
      <g>
       <use xlink:href="#med5f635b2b" x="116.834313" y="159.3" style="fill: #f2f2f2; stroke: #f2f2f2; stroke-width: 0.5"/>
      </g>
     </g>
    </g>
    <g id="xtick_16">
     <g id="line2d_16">
      <g>
       <use xlink:href="#med5f635b2b" x="123.331573" y="159.3" style="fill: #f2f2f2; stroke: #f2f2f2; stroke-width: 0.5"/>
      </g>
     </g>
    </g>
    <g id="xtick_17">
     <g id="line2d_17">
      <g>
       <use xlink:href="#med5f635b2b" x="129.828833" y="159.3" style="fill: #f2f2f2; stroke: #f2f2f2; stroke-width: 0.5"/>
      </g>
     </g>
    </g>
    <g id="xtick_18">
     <g id="line2d_18">
      <g>
       <use xlink:href="#med5f635b2b" x="136.326094" y="159.3" style="fill: #f2f2f2; stroke: #f2f2f2; stroke-width: 0.5"/>
      </g>
     </g>
    </g>
    <g id="xtick_19">
     <g id="line2d_19">
      <g>
       <use xlink:href="#med5f635b2b" x="149.320614" y="159.3" style="fill: #f2f2f2; stroke: #f2f2f2; stroke-width: 0.5"/>
      </g>
     </g>
    </g>
    <g id="xtick_20">
     <g id="line2d_20">
      <g>
       <use xlink:href="#med5f635b2b" x="155.817875" y="159.3" style="fill: #f2f2f2; stroke: #f2f2f2; stroke-width: 0.5"/>
      </g>
     </g>
    </g>
    <g id="xtick_21">
     <g id="line2d_21">
      <g>
       <use xlink:href="#med5f635b2b" x="162.315135" y="159.3" style="fill: #f2f2f2; stroke: #f2f2f2; stroke-width: 0.5"/>
      </g>
     </g>
    </g>
    <g id="xtick_22">
     <g id="line2d_22">
      <g>
       <use xlink:href="#med5f635b2b" x="168.812395" y="159.3" style="fill: #f2f2f2; stroke: #f2f2f2; stroke-width: 0.5"/>
      </g>
     </g>
    </g>
    <g id="xtick_23">
     <g id="line2d_23">
      <g>
       <use xlink:href="#med5f635b2b" x="181.806916" y="159.3" style="fill: #f2f2f2; stroke: #f2f2f2; stroke-width: 0.5"/>
      </g>
     </g>
    </g>
    <g id="xtick_24">
     <g id="line2d_24">
      <g>
       <use xlink:href="#med5f635b2b" x="188.304176" y="159.3" style="fill: #f2f2f2; stroke: #f2f2f2; stroke-width: 0.5"/>
      </g>
     </g>
    </g>
    <g id="xtick_25">
     <g id="line2d_25">
      <g>
       <use xlink:href="#med5f635b2b" x="194.801436" y="159.3" style="fill: #f2f2f2; stroke: #f2f2f2; stroke-width: 0.5"/>
      </g>
     </g>
    </g>
    <g id="xtick_26">
     <g id="line2d_26">
      <g>
       <use xlink:href="#med5f635b2b" x="201.298696" y="159.3" style="fill: #f2f2f2; stroke: #f2f2f2; stroke-width: 0.5"/>
      </g>
     </g>
    </g>
    <g id="xtick_27">
     <g id="line2d_27">
      <g>
       <use xlink:href="#med5f635b2b" x="214.293217" y="159.3" style="fill: #f2f2f2; stroke: #f2f2f2; stroke-width: 0.5"/>
      </g>
     </g>
    </g>
    <g id="xtick_28">
     <g id="line2d_28">
      <g>
       <use xlink:href="#med5f635b2b" x="220.790477" y="159.3" style="fill: #f2f2f2; stroke: #f2f2f2; stroke-width: 0.5"/>
      </g>
     </g>
    </g>
    <g id="xtick_29">
     <g id="line2d_29">
      <g>
       <use xlink:href="#med5f635b2b" x="227.287738" y="159.3" style="fill: #f2f2f2; stroke: #f2f2f2; stroke-width: 0.5"/>
      </g>
     </g>
    </g>
    <g id="text_7">
     <!-- Delay, $t$ (ps) -->
     <g style="fill: #f2f2f2" transform="translate(112.656094 185.44375)">
      <text>
       <tspan x="0" y="-0.46875" style="font-weight: 300; font-size: 9px; font-family: 'Fira Sans'; fill: #f2f2f2">D</tspan>
       <tspan x="5.687988" y="-0.46875" style="font-weight: 300; font-size: 9px; font-family: 'Fira Sans'; fill: #f2f2f2">e</tspan>
       <tspan x="10.511978" y="-0.46875" style="font-weight: 300; font-size: 9px; font-family: 'Fira Sans'; fill: #f2f2f2">l</tspan>
       <tspan x="13.067978" y="-0.46875" style="font-weight: 300; font-size: 9px; font-family: 'Fira Sans'; fill: #f2f2f2">a</tspan>
       <tspan x="17.891968" y="-0.46875" style="font-weight: 300; font-size: 9px; font-family: 'Fira Sans'; fill: #f2f2f2">y</tspan>
       <tspan x="22.103958" y="-0.46875" style="font-weight: 300; font-size: 9px; font-family: 'Fira Sans'; fill: #f2f2f2">,</tspan>
       <tspan x="23.966949" y="-0.46875" style="font-weight: 300; font-size: 9px; font-family: 'Fira Sans'; fill: #f2f2f2"> </tspan>
       <tspan x="29.528946" y="-0.46875" style="font-weight: 300; font-size: 9px; font-family: 'Fira Sans'; fill: #f2f2f2"> </tspan>
       <tspan x="32.039948" y="-0.46875" style="font-weight: 300; font-size: 9px; font-family: 'Fira Sans'; fill: #f2f2f2">(</tspan>
       <tspan x="34.955948" y="-0.46875" style="font-weight: 300; font-size: 9px; font-family: 'Fira Sans'; fill: #f2f2f2">p</tspan>
       <tspan x="40.184937" y="-0.46875" style="font-weight: 300; font-size: 9px; font-family: 'Fira Sans'; fill: #f2f2f2">s</tspan>
       <tspan x="44.360931" y="-0.46875" style="font-weight: 300; font-size: 9px; font-family: 'Fira Sans'; fill: #f2f2f2">)</tspan>
       <tspan x="26.477951" y="-0.46875" style="font-style: italic; font-weight: 300; font-size: 9px; font-family: 'Fira Sans'; fill: #f2f2f2">t</tspan>
      </text>
     </g>
    </g>
   </g>
   <g id="matplotlib.axis_2">
    <g id="ytick_1">
     <g id="line2d_30">
      <defs>
       <path id="m3662c4524f" d="M 0 0 
L -4 0 
" style="stroke: #f2f2f2; stroke-width: 0.5"/>
      </defs>
      <g>
       <use xlink:href="#m3662c4524f" x="41.466094" y="150.26087" style="fill: #f2f2f2; stroke: #f2f2f2; stroke-width: 0.5"/>
      </g>
     </g>
     <g id="text_8">
      <text style="font-weight: 300; font-size: 8px; font-family: 'Fira Sans', sans-serif; text-anchor: end; fill: #f2f2f2" x="34.466094" y="153.232745" transform="rotate(-0 34.466094 153.232745)">−1.0</text>
     </g>
    </g>
    <g id="ytick_2">
     <g id="line2d_31">
      <g>
       <use xlink:href="#m3662c4524f" x="41.466094" y="120.130435" style="fill: #f2f2f2; stroke: #f2f2f2; stroke-width: 0.5"/>
      </g>
     </g>
     <g id="text_9">
      <text style="font-weight: 300; font-size: 8px; font-family: 'Fira Sans', sans-serif; text-anchor: end; fill: #f2f2f2" x="34.466094" y="123.10231" transform="rotate(-0 34.466094 123.10231)">−0.5</text>
     </g>
    </g>
    <g id="ytick_3">
     <g id="line2d_32">
      <g>
       <use xlink:href="#m3662c4524f" x="41.466094" y="90" style="fill: #f2f2f2; stroke: #f2f2f2; stroke-width: 0.5"/>
      </g>
     </g>
     <g id="text_10">
      <text style="font-weight: 300; font-size: 8px; font-family: 'Fira Sans', sans-serif; text-anchor: end; fill: #f2f2f2" x="34.466094" y="92.971875" transform="rotate(-0 34.466094 92.971875)">0.0</text>
     </g>
    </g>
    <g id="ytick_4">
     <g id="line2d_33">
      <g>
       <use xlink:href="#m3662c4524f" x="41.466094" y="59.869565" style="fill: #f2f2f2; stroke: #f2f2f2; stroke-width: 0.5"/>
      </g>
     </g>
     <g id="text_11">
      <text style="font-weight: 300; font-size: 8px; font-family: 'Fira Sans', sans-serif; text-anchor: end; fill: #f2f2f2" x="34.466094" y="62.84144" transform="rotate(-0 34.466094 62.84144)">0.5</text>
     </g>
    </g>
    <g id="ytick_5">
     <g id="line2d_34">
      <g>
       <use xlink:href="#m3662c4524f" x="41.466094" y="29.73913" style="fill: #f2f2f2; stroke: #f2f2f2; stroke-width: 0.5"/>
      </g>
     </g>
     <g id="text_12">
      <text style="font-weight: 300; font-size: 8px; font-family: 'Fira Sans', sans-serif; text-anchor: end; fill: #f2f2f2" x="34.466094" y="32.711005" transform="rotate(-0 34.466094 32.711005)">1.0</text>
     </g>
    </g>
    <g id="ytick_6">
     <g id="line2d_35">
      <defs>
       <path id="mfdd8f8da50" d="M 0 0 
L -2 0 
" style="stroke: #f2f2f2; stroke-width: 0.5"/>
      </defs>
      <g>
       <use xlink:href="#mfdd8f8da50" x="41.466094" y="156.286957" style="fill: #f2f2f2; stroke: #f2f2f2; stroke-width: 0.5"/>
      </g>
     </g>
    </g>
    <g id="ytick_7">
     <g id="line2d_36">
      <g>
       <use xlink:href="#mfdd8f8da50" x="41.466094" y="144.234783" style="fill: #f2f2f2; stroke: #f2f2f2; stroke-width: 0.5"/>
      </g>
     </g>
    </g>
    <g id="ytick_8">
     <g id="line2d_37">
      <g>
       <use xlink:href="#mfdd8f8da50" x="41.466094" y="138.208696" style="fill: #f2f2f2; stroke: #f2f2f2; stroke-width: 0.5"/>
      </g>
     </g>
    </g>
    <g id="ytick_9">
     <g id="line2d_38">
      <g>
       <use xlink:href="#mfdd8f8da50" x="41.466094" y="132.182609" style="fill: #f2f2f2; stroke: #f2f2f2; stroke-width: 0.5"/>
      </g>
     </g>
    </g>
    <g id="ytick_10">
     <g id="line2d_39">
      <g>
       <use xlink:href="#mfdd8f8da50" x="41.466094" y="126.156522" style="fill: #f2f2f2; stroke: #f2f2f2; stroke-width: 0.5"/>
      </g>
     </g>
    </g>
    <g id="ytick_11">
     <g id="line2d_40">
      <g>
       <use xlink:href="#mfdd8f8da50" x="41.466094" y="114.104348" style="fill: #f2f2f2; stroke: #f2f2f2; stroke-width: 0.5"/>
      </g>
     </g>
    </g>
    <g id="ytick_12">
     <g id="line2d_41">
      <g>
       <use xlink:href="#mfdd8f8da50" x="41.466094" y="108.078261" style="fill: #f2f2f2; stroke: #f2f2f2; stroke-width: 0.5"/>
      </g>
     </g>
    </g>
    <g id="ytick_13">
     <g id="line2d_42">
      <g>
       <use xlink:href="#mfdd8f8da50" x="41.466094" y="102.052174" style="fill: #f2f2f2; stroke: #f2f2f2; stroke-width: 0.5"/>
      </g>
     </g>
    </g>
    <g id="ytick_14">
     <g id="line2d_43">
      <g>
       <use xlink:href="#mfdd8f8da50" x="41.466094" y="96.026087" style="fill: #f2f2f2; stroke: #f2f2f2; stroke-width: 0.5"/>
      </g>
     </g>
    </g>
    <g id="ytick_15">
     <g id="line2d_44">
      <g>
       <use xlink:href="#mfdd8f8da50" x="41.466094" y="83.973913" style="fill: #f2f2f2; stroke: #f2f2f2; stroke-width: 0.5"/>
      </g>
     </g>
    </g>
    <g id="ytick_16">
     <g id="line2d_45">
      <g>
       <use xlink:href="#mfdd8f8da50" x="41.466094" y="77.947826" style="fill: #f2f2f2; stroke: #f2f2f2; stroke-width: 0.5"/>
      </g>
     </g>
    </g>
    <g id="ytick_17">
     <g id="line2d_46">
      <g>
       <use xlink:href="#mfdd8f8da50" x="41.466094" y="71.921739" style="fill: #f2f2f2; stroke: #f2f2f2; stroke-width: 0.5"/>
      </g>
     </g>
    </g>
    <g id="ytick_18">
     <g id="line2d_47">
      <g>
       <use xlink:href="#mfdd8f8da50" x="41.466094" y="65.895652" style="fill: #f2f2f2; stroke: #f2f2f2; stroke-width: 0.5"/>
      </g>
     </g>
    </g>
    <g id="ytick_19">
     <g id="line2d_48">
      <g>
       <use xlink:href="#mfdd8f8da50" x="41.466094" y="53.843478" style="fill: #f2f2f2; stroke: #f2f2f2; stroke-width: 0.5"/>
      </g>
     </g>
    </g>
    <g id="ytick_20">
     <g id="line2d_49">
      <g>
       <use xlink:href="#mfdd8f8da50" x="41.466094" y="47.817391" style="fill: #f2f2f2; stroke: #f2f2f2; stroke-width: 0.5"/>
      </g>
     </g>
    </g>
    <g id="ytick_21">
     <g id="line2d_50">
      <g>
       <use xlink:href="#mfdd8f8da50" x="41.466094" y="41.791304" style="fill: #f2f2f2; stroke: #f2f2f2; stroke-width: 0.5"/>
      </g>
     </g>
    </g>
    <g id="ytick_22">
     <g id="line2d_51">
      <g>
       <use xlink:href="#mfdd8f8da50" x="41.466094" y="35.765217" style="fill: #f2f2f2; stroke: #f2f2f2; stroke-width: 0.5"/>
      </g>
     </g>
    </g>
    <g id="ytick_23">
     <g id="line2d_52">
      <g>
       <use xlink:href="#mfdd8f8da50" x="41.466094" y="23.713043" style="fill: #f2f2f2; stroke: #f2f2f2; stroke-width: 0.5"/>
      </g>
     </g>
    </g>
    <g id="text_13">
     <text style="font-weight: 300; font-size: 9px; font-family: 'Fira Sans', sans-serif; text-anchor: middle; fill: #f2f2f2" x="14.724844" y="90" transform="rotate(-90 14.724844 90)">Intensity (arb. units)</text>
    </g>
   </g>
   <g id="line2d_53">
    <path d="M 45.36445 90 
L 48.418162 62.708679 
L 49.977505 50.71993 
L 51.211984 42.796039 
L 52.251546 37.4311 
L 53.161162 33.834514 
L 53.940833 31.624386 
L 54.59056 30.422985 
L 55.11034 29.890085 
L 55.565149 29.73915 
L 55.954984 29.844709 
L 56.409792 30.241416 
L 56.929573 31.053022 
L 57.514327 32.416429 
L 58.229025 34.714391 
L 59.073669 38.289073 
L 60.048258 43.493513 
L 61.152792 50.647196 
L 62.517217 61.025211 
L 64.33645 76.755648 
L 69.599231 123.447007 
L 71.028628 133.579945 
L 72.198135 140.326928 
L 73.172724 144.714897 
L 74.017368 147.5267 
L 74.732066 149.149072 
L 75.31682 149.945273 
L 75.771628 150.229264 
L 76.161464 150.237901 
L 76.551299 150.029746 
L 77.006107 149.513941 
L 77.525888 148.567724 
L 78.175614 146.859063 
L 78.890313 144.324189 
L 79.734957 140.484717 
L 80.709546 135.000733 
L 81.879053 127.098405 
L 83.30845 115.841019 
L 85.322601 98.002156 
L 89.480847 60.749686 
L 90.975217 49.508779 
L 92.209696 41.808684 
L 93.249258 36.660136 
L 94.093902 33.475306 
L 94.808601 31.523826 
L 95.458327 30.362677 
L 95.978107 29.862432 
L 96.432916 29.740222 
L 96.822751 29.870404 
L 97.27756 30.295715 
L 97.79734 31.139676 
L 98.382094 32.538811 
L 99.096792 34.879066 
L 99.941436 38.501127 
L 100.916025 43.755739 
L 102.085532 51.420094 
L 103.449957 61.917717 
L 105.334162 78.336587 
L 110.207107 121.765433 
L 111.636505 132.175057 
L 112.806012 139.199503 
L 113.780601 143.846937 
L 114.625244 146.899599 
L 115.339943 148.73421 
L 115.924696 149.707908 
L 116.444477 150.167836 
L 116.834313 150.260279 
L 117.224149 150.135851 
L 117.678957 149.717224 
L 118.198738 148.880821 
L 118.783491 147.49003 
L 119.49819 145.159649 
L 120.342833 141.548647 
L 121.317423 136.305738 
L 122.486929 128.653584 
L 123.851354 118.167164 
L 125.73556 101.757558 
L 130.673477 57.805166 
L 132.102875 47.464566 
L 133.272381 40.509695 
L 134.24697 35.927522 
L 135.091614 32.935573 
L 135.806313 31.15455 
L 136.391066 30.225726 
L 136.845875 29.837572 
L 137.23571 29.739372 
L 137.625546 29.858046 
L 138.080354 30.269989 
L 138.600135 31.098832 
L 139.184888 32.481275 
L 139.899587 34.801775 
L 140.744231 38.401711 
L 141.71882 43.632902 
L 142.758381 50.357262 
L 142.758381 50.357262 
" clip-path="url(#p0f0e2324ea)" style="fill: none; stroke: #2ab5dd; stroke-opacity: 0.75; stroke-width: 0.75; stroke-linecap: square"/>
   </g>
   <g id="line2d_54">
    <path d="M 45.36445 111.305435 
L 46.663902 106.648008 
L 48.288217 99.917287 
L 51.017066 87.45395 
L 53.61597 75.963554 
L 55.175313 70.028422 
L 56.409792 66.127062 
L 57.449354 63.503276 
L 58.35897 61.760834 
L 59.138642 60.706121 
L 59.788368 60.148577 
L 60.373121 59.901708 
L 60.957875 59.89847 
L 61.542628 60.138889 
L 62.127381 60.621021 
L 62.84208 61.532694 
L 63.621751 62.919208 
L 64.531368 65.02737 
L 65.570929 68.032214 
L 66.805409 72.322155 
L 68.364751 78.628669 
L 70.638792 88.885705 
L 73.952395 103.726435 
L 75.511738 109.708705 
L 76.81119 113.84363 
L 77.850751 116.473845 
L 78.760368 118.222397 
L 79.540039 119.282612 
L 80.254738 119.884761 
L 80.839491 120.108926 
L 81.424244 120.089374 
L 82.008998 119.826262 
L 82.658724 119.250915 
L 83.373423 118.280777 
L 84.153094 116.833079 
L 85.06271 114.658095 
L 86.102272 111.584493 
L 87.336751 107.225745 
L 88.896094 100.855827 
L 91.30008 89.957319 
L 94.353792 76.3163 
L 95.913135 70.327617 
L 97.212587 66.185738 
L 98.252149 63.549102 
L 99.161765 61.794444 
L 99.941436 60.728728 
L 100.656135 60.121392 
L 101.240888 59.892925 
L 101.825642 59.90816 
L 102.410395 60.166975 
L 103.060121 60.737612 
L 103.77482 61.702705 
L 104.554491 63.145128 
L 105.464107 65.314359 
L 106.503669 68.382052 
L 107.738149 72.734905 
L 109.297491 79.099422 
L 111.701477 89.994693 
L 114.75519 103.640929 
L 116.314532 109.63601 
L 117.613984 113.784834 
L 118.653546 116.427884 
L 119.563162 118.188643 
L 120.342833 119.259857 
L 121.057532 119.872379 
L 121.642286 120.105148 
L 122.227039 120.09423 
L 122.811792 119.839713 
L 123.461518 119.273786 
L 124.176217 118.313742 
L 124.955888 116.876597 
L 125.865505 114.713125 
L 126.905066 111.651347 
L 128.139546 107.304401 
L 129.698888 100.945301 
L 132.102875 90.053294 
L 135.156587 76.401876 
L 136.715929 70.400412 
L 138.015381 66.244655 
L 139.054943 63.595197 
L 139.96456 61.828341 
L 140.744231 60.751632 
L 141.458929 60.133926 
L 142.043683 59.896856 
L 142.628436 59.903457 
L 142.758381 59.938048 
L 142.758381 59.938048 
" clip-path="url(#p0f0e2324ea)" style="fill: none; stroke: #d71045; stroke-opacity: 0.75; stroke-width: 0.75; stroke-linecap: square"/>
   </g>
   <g id="line2d_55">
    <path d="M 45.36445 110.086957 
L 46.079149 109.965553 
L 46.793847 109.60281 
L 47.573518 108.937072 
L 48.418162 107.908893 
L 49.392751 106.348341 
L 50.497286 104.13811 
L 51.796738 101.021509 
L 53.486025 96.333867 
L 56.474765 87.212844 
L 58.878751 80.207968 
L 60.438094 76.31966 
L 61.672573 73.788055 
L 62.777107 72.015258 
L 63.686724 70.942837 
L 64.531368 70.280591 
L 65.246066 69.979869 
L 65.960765 69.921148 
L 66.675464 70.105135 
L 67.390162 70.529608 
L 68.169833 71.260836 
L 69.07945 72.453624 
L 70.054039 74.111866 
L 71.223546 76.568898 
L 72.58797 79.977574 
L 74.407203 85.178679 
L 79.994847 101.632139 
L 81.424244 104.925542 
L 82.593751 107.091093 
L 83.56834 108.476302 
L 84.477957 109.395286 
L 85.257628 109.881396 
L 85.972327 110.075897 
L 86.687025 110.027724 
L 87.401724 109.73746 
L 88.116423 109.208613 
L 88.961066 108.284936 
L 89.870683 106.94567 
L 90.910244 105.010878 
L 92.144724 102.219926 
L 93.639094 98.263629 
L 95.78319 91.885027 
L 99.616573 80.440064 
L 101.175916 76.514777 
L 102.475368 73.825915 
L 103.579902 72.043846 
L 104.489518 70.963157 
L 105.334162 70.292874 
L 106.048861 69.985186 
L 106.76356 69.919432 
L 107.478258 70.096409 
L 108.192957 70.513976 
L 108.972628 71.237889 
L 109.817272 72.326226 
L 110.791861 73.9512 
L 111.961368 76.373132 
L 113.325792 79.748923 
L 115.080053 84.727908 
L 120.99256 102.067027 
L 122.356984 105.149461 
L 123.526491 107.266126 
L 124.50108 108.606203 
L 125.345724 109.430448 
L 126.125395 109.900468 
L 126.840094 110.079973 
L 127.554792 110.016755 
L 128.269491 109.711578 
L 129.049162 109.107117 
L 129.893806 108.142535 
L 130.868395 106.650399 
L 131.972929 104.509429 
L 133.272381 101.460474 
L 134.896696 97.022829 
L 137.430628 89.340602 
L 140.289423 80.852193 
L 141.913738 76.712239 
L 142.758381 74.871566 
L 142.758381 74.871566 
" clip-path="url(#p0f0e2324ea)" style="fill: none; stroke: #45ba47; stroke-opacity: 0.75; stroke-width: 0.75; stroke-linecap: square"/>
   </g>
   <g id="line2d_56">
    <path d="M 45.36445 100.652717 
L 46.598929 102.472874 
L 47.703464 103.722522 
L 48.678053 104.497515 
L 49.522696 104.906254 
L 50.302368 105.060359 
L 51.082039 104.997855 
L 51.86171 104.71964 
L 52.706354 104.179534 
L 53.61597 103.330616 
L 54.655532 102.042217 
L 55.825039 100.227014 
L 57.254436 97.566449 
L 59.073669 93.671619 
L 64.726286 81.199982 
L 66.155683 78.743605 
L 67.390162 77.055183 
L 68.429724 75.992713 
L 69.33934 75.355873 
L 70.183984 75.020926 
L 70.963655 74.936057 
L 71.743327 75.067849 
L 72.58797 75.452845 
L 73.497587 76.141733 
L 74.472176 77.180286 
L 75.57671 78.703827 
L 76.876162 80.909297 
L 78.435505 84.025453 
L 80.709546 89.129909 
L 84.218066 96.986357 
L 85.842381 100.071353 
L 87.141833 102.096479 
L 88.246368 103.441321 
L 89.220957 104.307137 
L 90.130573 104.825625 
L 90.975217 105.047441 
L 91.754888 105.026815 
L 92.53456 104.790062 
L 93.379203 104.293711 
L 94.28882 103.489738 
L 95.328381 102.248844 
L 96.497888 100.480719 
L 97.862313 97.994518 
L 99.616573 94.298978 
L 105.918916 80.519833 
L 107.28334 78.287367 
L 108.452847 76.7803 
L 109.492409 75.798081 
L 110.402025 75.235611 
L 111.246669 74.971863 
L 112.02634 74.953478 
L 112.806012 75.151503 
L 113.650655 75.606864 
L 114.560272 76.36859 
L 115.534861 77.480222 
L 116.639395 79.07836 
L 117.938847 81.357623 
L 119.563162 84.679204 
L 122.162066 90.587809 
L 125.020861 96.943806 
L 126.645176 100.035614 
L 127.944628 102.067815 
L 129.049162 103.419581 
L 130.023751 104.292033 
L 130.933368 104.817025 
L 131.778012 105.045034 
L 132.557683 105.030163 
L 133.337354 104.799117 
L 134.181998 104.308798 
L 135.091614 103.511034 
L 136.131176 102.27672 
L 137.300683 100.515137 
L 138.665107 98.03515 
L 140.419368 94.344948 
L 142.758381 88.984848 
L 142.758381 88.984848 
" clip-path="url(#p0f0e2324ea)" style="fill: none; stroke: #ed590c; stroke-opacity: 0.75; stroke-width: 0.75; stroke-linecap: square"/>
   </g>
   <g id="line2d_57">
    <path d="M 45.36445 90 
L 48.548107 95.672065 
L 50.172423 98.126635 
L 51.536847 99.803425 
L 52.706354 100.900133 
L 53.745916 101.580151 
L 54.720505 101.949228 
L 55.630121 102.051663 
L 56.539738 101.918271 
L 57.449354 101.551663 
L 58.423943 100.908309 
L 59.463505 99.952504 
L 60.633012 98.574801 
L 62.062409 96.519891 
L 63.816669 93.579994 
L 70.378902 82.158553 
L 71.743327 80.422912 
L 72.912833 79.267734 
L 73.952395 78.531126 
L 74.926984 78.106386 
L 75.836601 77.950847 
L 76.746217 78.031085 
L 77.655833 78.345531 
L 78.630423 78.935255 
L 79.669984 79.837755 
L 80.839491 81.161958 
L 82.203916 83.064271 
L 83.893203 85.831295 
L 86.687025 90.924874 
L 89.415875 95.7444 
L 91.04019 98.187098 
L 92.404614 99.850972 
L 93.574121 100.934922 
L 94.613683 101.602643 
L 95.588272 101.959663 
L 96.497888 102.050628 
L 97.407505 101.905786 
L 98.317121 101.527971 
L 99.29171 100.873132 
L 100.331272 99.905952 
L 101.565751 98.431188 
L 102.995149 96.348538 
L 104.814381 93.270155 
L 110.921806 82.56099 
L 112.351203 80.670947 
L 113.585683 79.397754 
L 114.625244 78.62008 
L 115.599833 78.154756 
L 116.50945 77.96034 
L 117.419066 78.001516 
L 118.328683 78.277478 
L 119.303272 78.827467 
L 120.342833 79.690271 
L 121.51234 80.974366 
L 122.876765 82.837629 
L 124.50108 85.458391 
L 126.970039 89.923221 
L 130.153696 95.604205 
L 131.842984 98.158884 
L 133.207409 99.828804 
L 134.376916 100.918724 
L 135.416477 101.592197 
L 136.391066 101.954855 
L 137.300683 102.051182 
L 138.210299 101.911691 
L 139.119916 101.539112 
L 140.094505 100.889637 
L 141.134066 99.927769 
L 142.368546 98.458577 
L 142.758381 97.928548 
L 142.758381 97.928548 
" clip-path="url(#p0f0e2324ea)" style="fill: none; stroke: #cf0eee; stroke-opacity: 0.75; stroke-width: 0.75; stroke-linecap: square"/>
   </g>
   <g id="line2d_58">
    <path d="M 45.36445 82.898188 
L 46.85882 84.704258 
L 48.743025 87.365661 
L 54.785477 96.194273 
L 56.279847 97.833511 
L 57.514327 98.879614 
L 58.618861 99.545579 
L 59.658423 99.921213 
L 60.633012 100.043286 
L 61.607601 99.939807 
L 62.58219 99.613103 
L 63.621751 99.026931 
L 64.791258 98.092831 
L 66.09071 96.749847 
L 67.650053 94.788555 
L 69.729176 91.768337 
L 74.537149 84.639461 
L 76.161464 82.704832 
L 77.460916 81.478827 
L 78.630423 80.664756 
L 79.669984 80.193769 
L 80.644573 79.979588 
L 81.619162 79.990444 
L 82.593751 80.226093 
L 83.633313 80.719168 
L 84.737847 81.502438 
L 85.972327 82.666466 
L 87.401724 84.340773 
L 89.155984 86.758943 
L 92.469587 91.812075 
L 94.873573 95.261721 
L 96.497888 97.214655 
L 97.862313 98.512695 
L 99.03182 99.329332 
L 100.071381 99.802762 
L 101.04597 100.019316 
L 102.02056 100.010857 
L 102.995149 99.777575 
L 104.03471 99.286934 
L 105.139244 98.506078 
L 106.373724 97.344454 
L 107.803121 95.672434 
L 109.557381 93.256193 
L 112.806012 88.302564 
L 115.209998 84.837804 
L 116.834313 82.866827 
L 118.198738 81.54966 
L 119.368244 80.714414 
L 120.407806 80.223234 
L 121.382395 79.989429 
L 122.356984 79.98044 
L 123.331573 80.196468 
L 124.371135 80.669359 
L 125.475669 81.432588 
L 126.710149 82.576625 
L 128.139546 84.231866 
L 129.893806 86.633887 
L 132.947518 91.284361 
L 135.48145 94.974981 
L 137.105765 96.978855 
L 138.47019 98.331174 
L 139.639696 99.200784 
L 140.744231 99.749456 
L 141.71882 100.000481 
L 142.693409 100.026917 
L 142.758381 100.020651 
L 142.758381 100.020651 
" clip-path="url(#p0f0e2324ea)" style="fill: none; stroke: #f2e029; stroke-opacity: 0.75; stroke-width: 0.75; stroke-linecap: square"/>
   </g>
   <g id="line2d_59">
    <path d="M 45.36445 81.391304 
L 46.404012 81.501261 
L 47.443573 81.828321 
L 48.548107 82.404265 
L 49.782587 83.306113 
L 51.211984 84.648749 
L 52.901272 86.562208 
L 55.435203 89.820984 
L 58.813779 94.121211 
L 60.568039 95.987893 
L 61.997436 97.193329 
L 63.231916 97.957038 
L 64.33645 98.398201 
L 65.440984 98.597241 
L 66.480546 98.55816 
L 67.520107 98.300457 
L 68.624642 97.794562 
L 69.794149 97.014389 
L 71.158573 95.81991 
L 72.717916 94.145265 
L 74.797039 91.56144 
L 79.734957 85.299445 
L 81.359272 83.661271 
L 82.723696 82.586257 
L 83.958176 81.893298 
L 85.06271 81.520083 
L 86.102272 81.392053 
L 87.141833 81.483916 
L 88.181395 81.793327 
L 89.285929 82.351507 
L 90.520409 83.235324 
L 91.884833 84.493853 
L 93.574121 86.380158 
L 95.978107 89.449577 
L 99.681546 94.172621 
L 101.370833 95.968161 
L 102.800231 97.178229 
L 104.03471 97.946532 
L 105.139244 98.392132 
L 106.243779 98.595783 
L 107.28334 98.561083 
L 108.322902 98.307687 
L 109.427436 97.806162 
L 110.596943 97.030251 
L 111.961368 95.840086 
L 113.52071 94.169277 
L 115.599833 91.588399 
L 120.537751 85.322441 
L 122.162066 83.679857 
L 123.526491 82.600232 
L 124.76097 81.902566 
L 125.865505 81.524851 
L 126.905066 81.392458 
L 127.944628 81.479948 
L 128.98419 81.785086 
L 130.088724 82.338961 
L 131.323203 83.218398 
L 132.687628 84.472802 
L 134.311943 86.27749 
L 136.650957 89.250556 
L 140.549313 94.223838 
L 142.238601 96.010301 
L 142.758381 96.483615 
L 142.758381 96.483615 
" clip-path="url(#p0f0e2324ea)" style="fill: none; stroke: #3672b2; stroke-opacity: 0.75; stroke-width: 0.75; stroke-linecap: square"/>
   </g>
   <g id="line2d_60">
    <path d="M 45.36445 84.673641 
L 46.793847 83.639651 
L 48.093299 82.964682 
L 49.262806 82.596478 
L 50.36734 82.468284 
L 51.471875 82.557233 
L 52.641381 82.885141 
L 53.875861 83.480351 
L 55.175313 84.359858 
L 56.669683 85.646651 
L 58.553888 87.586247 
L 65.570929 95.155455 
L 67.065299 96.271734 
L 68.364751 96.975564 
L 69.534258 97.371816 
L 70.703765 97.529865 
L 71.808299 97.455713 
L 72.977806 97.143056 
L 74.147313 96.599589 
L 75.446765 95.746628 
L 76.941135 94.485059 
L 78.760368 92.637937 
L 81.879053 89.081708 
L 84.542929 86.177643 
L 86.29719 84.584837 
L 87.726587 83.572696 
L 89.026039 82.920421 
L 90.195546 82.574178 
L 91.30008 82.467399 
L 92.404614 82.577788 
L 93.574121 82.927739 
L 94.808601 83.544709 
L 96.173025 84.495753 
L 97.732368 85.875859 
L 99.681546 87.922811 
L 105.983888 94.798388 
L 107.543231 96.041081 
L 108.907655 96.84633 
L 110.142135 97.316393 
L 111.311642 97.518974 
L 112.416176 97.487228 
L 113.52071 97.239621 
L 114.690217 96.750202 
L 115.989669 95.951516 
L 117.419066 94.800433 
L 119.173327 93.078187 
L 121.707258 90.233266 
L 125.215779 86.329146 
L 126.970039 84.707681 
L 128.399436 83.665489 
L 129.698888 82.981972 
L 130.868395 82.605474 
L 131.972929 82.469176 
L 133.077464 82.549995 
L 134.24697 82.869527 
L 135.48145 83.456448 
L 136.780902 84.328165 
L 138.275272 85.607578 
L 140.159477 87.540839 
L 142.758381 90.507576 
L 142.758381 90.507576 
" clip-path="url(#p0f0e2324ea)" style="fill: none; stroke: #7e5fcc; stroke-opacity: 0.75; stroke-width: 0.75; stroke-linecap: square"/>
   </g>
   <g id="patch_3">
    <path d="M 41.466094 159.3 
L 41.466094 20.7 
" style="fill: none; stroke: #f2f2f2; stroke-width: 0.5; stroke-linejoin: miter; stroke-linecap: square"/>
   </g>
   <g id="patch_4">
    <path d="M 231.186094 159.3 
L 231.186094 20.7 
" style="fill: none; stroke: #f2f2f2; stroke-width: 0.5; stroke-linejoin: miter; stroke-linecap: square"/>
   </g>
   <g id="patch_5">
    <path d="M 41.466094 159.3 
L 231.186094 159.3 
" style="fill: none; stroke: #f2f2f2; stroke-width: 0.5; stroke-linejoin: miter; stroke-linecap: square"/>
   </g>
   <g id="patch_6">
    <path d="M 41.466094 20.7 
L 231.186094 20.7 
" style="fill: none; stroke: #f2f2f2; stroke-width: 0.5; stroke-linejoin: miter; stroke-linecap: square"/>
   </g>
   <g id="text_14">
    <text style="font-size: 10px; font-family: 'Fira Sans', sans-serif; text-anchor: middle; fill: #f2f2f2" x="136.326094" y="14.7" transform="rotate(-0 136.326094 14.7)">MBIstyles</text>
   </g>
   <g id="legend_1">
    <g id="line2d_61">
     <path d="M 165.216094 32.94 
L 174.216094 32.94 
L 183.216094 32.94 
" style="fill: none; stroke: #2ab5dd; stroke-opacity: 0.75; stroke-width: 0.75; stroke-linecap: square"/>
    </g>
    <g id="text_15">
     <!-- $\phi = 0\pi/4$ -->
     <g style="fill: #f2f2f2" transform="translate(190.416094 36.09)">
      <text>
       <tspan x="0" y="-0.765625" style="font-style: italic; font-weight: 300; font-size: 9px; font-family: 'Fira Sans'; fill: #f2f2f2">ϕ</tspan>
       <tspan x="18.032379" y="-0.765625" style="font-style: italic; font-weight: 300; font-size: 9px; font-family: 'Fira Sans'; fill: #f2f2f2">π</tspan>
       <tspan x="7.117188" y="-0.765625" style="font-weight: 300; font-size: 9px; font-family: 'Fira Sans'; fill: #f2f2f2">=</tspan>
       <tspan x="13.082382" y="-0.765625" style="font-weight: 300; font-size: 9px; font-family: 'Fira Sans'; fill: #f2f2f2">0</tspan>
       <tspan x="23.261368" y="-0.765625" style="font-weight: 300; font-size: 9px; font-family: 'Fira Sans'; fill: #f2f2f2">/</tspan>
       <tspan x="27.94136" y="-0.765625" style="font-weight: 300; font-size: 9px; font-family: 'Fira Sans'; fill: #f2f2f2">4</tspan>
      </text>
     </g>
    </g>
    <g id="line2d_62">
     <path d="M 165.216094 46.62 
L 174.216094 46.62 
L 183.216094 46.62 
" style="fill: none; stroke: #d71045; stroke-opacity: 0.75; stroke-width: 0.75; stroke-linecap: square"/>
    </g>
    <g id="text_16">
     <!-- $\phi = 1\pi/4$ -->
     <g style="fill: #f2f2f2" transform="translate(190.416094 49.77)">
      <text>
       <tspan x="0" y="-0.765625" style="font-style: italic; font-weight: 300; font-size: 9px; font-family: 'Fira Sans'; fill: #f2f2f2">ϕ</tspan>
       <tspan x="16.799377" y="-0.765625" style="font-style: italic; font-weight: 300; font-size: 9px; font-family: 'Fira Sans'; fill: #f2f2f2">π</tspan>
       <tspan x="7.117188" y="-0.765625" style="font-weight: 300; font-size: 9px; font-family: 'Fira Sans'; fill: #f2f2f2">=</tspan>
       <tspan x="13.082382" y="-0.765625" style="font-weight: 300; font-size: 9px; font-family: 'Fira Sans'; fill: #f2f2f2">1</tspan>
       <tspan x="22.028366" y="-0.765625" style="font-weight: 300; font-size: 9px; font-family: 'Fira Sans'; fill: #f2f2f2">/</tspan>
       <tspan x="26.708359" y="-0.765625" style="font-weight: 300; font-size: 9px; font-family: 'Fira Sans'; fill: #f2f2f2">4</tspan>
      </text>
     </g>
    </g>
    <g id="line2d_63">
     <path d="M 165.216094 60.3 
L 174.216094 60.3 
L 183.216094 60.3 
" style="fill: none; stroke: #45ba47; stroke-opacity: 0.75; stroke-width: 0.75; stroke-linecap: square"/>
    </g>
    <g id="text_17">
     <!-- $\phi = 2\pi/4$ -->
     <g style="fill: #f2f2f2" transform="translate(190.416094 63.45)">
      <text>
       <tspan x="0" y="-0.765625" style="font-style: italic; font-weight: 300; font-size: 9px; font-family: 'Fira Sans'; fill: #f2f2f2">ϕ</tspan>
       <tspan x="17.393372" y="-0.765625" style="font-style: italic; font-weight: 300; font-size: 9px; font-family: 'Fira Sans'; fill: #f2f2f2">π</tspan>
       <tspan x="7.117188" y="-0.765625" style="font-weight: 300; font-size: 9px; font-family: 'Fira Sans'; fill: #f2f2f2">=</tspan>
       <tspan x="13.082382" y="-0.765625" style="font-weight: 300; font-size: 9px; font-family: 'Fira Sans'; fill: #f2f2f2">2</tspan>
       <tspan x="22.62236" y="-0.765625" style="font-weight: 300; font-size: 9px; font-family: 'Fira Sans'; fill: #f2f2f2">/</tspan>
       <tspan x="27.302353" y="-0.765625" style="font-weight: 300; font-size: 9px; font-family: 'Fira Sans'; fill: #f2f2f2">4</tspan>
      </text>
     </g>
    </g>
    <g id="line2d_64">
     <path d="M 165.216094 73.98 
L 174.216094 73.98 
L 183.216094 73.98 
" style="fill: none; stroke: #ed590c; stroke-opacity: 0.75; stroke-width: 0.75; stroke-linecap: square"/>
    </g>
    <g id="text_18">
     <!-- $\phi = 3\pi/4$ -->
     <g style="fill: #f2f2f2" transform="translate(190.416094 77.13)">
      <text>
       <tspan x="0" y="-0.765625" style="font-style: italic; font-weight: 300; font-size: 9px; font-family: 'Fira Sans'; fill: #f2f2f2">ϕ</tspan>
       <tspan x="17.456375" y="-0.765625" style="font-style: italic; font-weight: 300; font-size: 9px; font-family: 'Fira Sans'; fill: #f2f2f2">π</tspan>
       <tspan x="7.117188" y="-0.765625" style="font-weight: 300; font-size: 9px; font-family: 'Fira Sans'; fill: #f2f2f2">=</tspan>
       <tspan x="13.082382" y="-0.765625" style="font-weight: 300; font-size: 9px; font-family: 'Fira Sans'; fill: #f2f2f2">3</tspan>
       <tspan x="22.685364" y="-0.765625" style="font-weight: 300; font-size: 9px; font-family: 'Fira Sans'; fill: #f2f2f2">/</tspan>
       <tspan x="27.365356" y="-0.765625" style="font-weight: 300; font-size: 9px; font-family: 'Fira Sans'; fill: #f2f2f2">4</tspan>
      </text>
     </g>
    </g>
    <g id="line2d_65">
     <path d="M 165.216094 87.66 
L 174.216094 87.66 
L 183.216094 87.66 
" style="fill: none; stroke: #cf0eee; stroke-opacity: 0.75; stroke-width: 0.75; stroke-linecap: square"/>
    </g>
    <g id="text_19">
     <!-- $\phi = 4\pi/4$ -->
     <g style="fill: #f2f2f2" transform="translate(190.416094 90.81)">
      <text>
       <tspan x="0" y="-0.765625" style="font-style: italic; font-weight: 300; font-size: 9px; font-family: 'Fira Sans'; fill: #f2f2f2">ϕ</tspan>
       <tspan x="17.744385" y="-0.765625" style="font-style: italic; font-weight: 300; font-size: 9px; font-family: 'Fira Sans'; fill: #f2f2f2">π</tspan>
       <tspan x="7.117188" y="-0.765625" style="font-weight: 300; font-size: 9px; font-family: 'Fira Sans'; fill: #f2f2f2">=</tspan>
       <tspan x="13.082382" y="-0.765625" style="font-weight: 300; font-size: 9px; font-family: 'Fira Sans'; fill: #f2f2f2">4</tspan>
       <tspan x="22.973373" y="-0.765625" style="font-weight: 300; font-size: 9px; font-family: 'Fira Sans'; fill: #f2f2f2">/</tspan>
       <tspan x="27.653366" y="-0.765625" style="font-weight: 300; font-size: 9px; font-family: 'Fira Sans'; fill: #f2f2f2">4</tspan>
      </text>
     </g>
    </g>
    <g id="line2d_66">
     <path d="M 165.216094 101.34 
L 174.216094 101.34 
L 183.216094 101.34 
" style="fill: none; stroke: #f2e029; stroke-opacity: 0.75; stroke-width: 0.75; stroke-linecap: square"/>
    </g>
    <g id="text_20">
     <!-- $\phi = 5\pi/4$ -->
     <g style="fill: #f2f2f2" transform="translate(190.416094 104.49)">
      <text>
       <tspan x="0" y="-0.765625" style="font-style: italic; font-weight: 300; font-size: 9px; font-family: 'Fira Sans'; fill: #f2f2f2">ϕ</tspan>
       <tspan x="17.465378" y="-0.765625" style="font-style: italic; font-weight: 300; font-size: 9px; font-family: 'Fira Sans'; fill: #f2f2f2">π</tspan>
       <tspan x="7.117188" y="-0.765625" style="font-weight: 300; font-size: 9px; font-family: 'Fira Sans'; fill: #f2f2f2">=</tspan>
       <tspan x="13.082382" y="-0.765625" style="font-weight: 300; font-size: 9px; font-family: 'Fira Sans'; fill: #f2f2f2">5</tspan>
       <tspan x="22.694366" y="-0.765625" style="font-weight: 300; font-size: 9px; font-family: 'Fira Sans'; fill: #f2f2f2">/</tspan>
       <tspan x="27.374359" y="-0.765625" style="font-weight: 300; font-size: 9px; font-family: 'Fira Sans'; fill: #f2f2f2">4</tspan>
      </text>
     </g>
    </g>
    <g id="line2d_67">
     <path d="M 165.216094 115.02 
L 174.216094 115.02 
L 183.216094 115.02 
" style="fill: none; stroke: #3672b2; stroke-opacity: 0.75; stroke-width: 0.75; stroke-linecap: square"/>
    </g>
    <g id="text_21">
     <!-- $\phi = 6\pi/4$ -->
     <g style="fill: #f2f2f2" transform="translate(190.416094 118.17)">
      <text>
       <tspan x="0" y="-0.765625" style="font-style: italic; font-weight: 300; font-size: 9px; font-family: 'Fira Sans'; fill: #f2f2f2">ϕ</tspan>
       <tspan x="17.79837" y="-0.765625" style="font-style: italic; font-weight: 300; font-size: 9px; font-family: 'Fira Sans'; fill: #f2f2f2">π</tspan>
       <tspan x="7.117188" y="-0.765625" style="font-weight: 300; font-size: 9px; font-family: 'Fira Sans'; fill: #f2f2f2">=</tspan>
       <tspan x="13.082382" y="-0.765625" style="font-weight: 300; font-size: 9px; font-family: 'Fira Sans'; fill: #f2f2f2">6</tspan>
       <tspan x="23.027359" y="-0.765625" style="font-weight: 300; font-size: 9px; font-family: 'Fira Sans'; fill: #f2f2f2">/</tspan>
       <tspan x="27.707352" y="-0.765625" style="font-weight: 300; font-size: 9px; font-family: 'Fira Sans'; fill: #f2f2f2">4</tspan>
      </text>
     </g>
    </g>
    <g id="line2d_68">
     <path d="M 165.216094 128.7 
L 174.216094 128.7 
L 183.216094 128.7 
" style="fill: none; stroke: #7e5fcc; stroke-opacity: 0.75; stroke-width: 0.75; stroke-linecap: square"/>
    </g>
    <g id="text_22">
     <!-- $\phi = 7\pi/4$ -->
     <g style="fill: #f2f2f2" transform="translate(190.416094 131.85)">
      <text>
       <tspan x="0" y="-0.765625" style="font-style: italic; font-weight: 300; font-size: 9px; font-family: 'Fira Sans'; fill: #f2f2f2">ϕ</tspan>
       <tspan x="17.015381" y="-0.765625" style="font-style: italic; font-weight: 300; font-size: 9px; font-family: 'Fira Sans'; fill: #f2f2f2">π</tspan>
       <tspan x="7.117188" y="-0.765625" style="font-weight: 300; font-size: 9px; font-family: 'Fira Sans'; fill: #f2f2f2">=</tspan>
       <tspan x="13.082382" y="-0.765625" style="font-weight: 300; font-size: 9px; font-family: 'Fira Sans'; fill: #f2f2f2">7</tspan>
       <tspan x="22.24437" y="-0.765625" style="font-weight: 300; font-size: 9px; font-family: 'Fira Sans'; fill: #f2f2f2">/</tspan>
       <tspan x="26.924362" y="-0.765625" style="font-weight: 300; font-size: 9px; font-family: 'Fira Sans'; fill: #f2f2f2">4</tspan>
      </text>
     </g>
    </g>
   </g>
  </g>
 </g>
 <defs>
  <clipPath id="p0f0e2324ea">
   <rect x="41.466094" y="20.7" width="189.72" height="138.6"/>
  </clipPath>
 </defs>
</svg>
